<?xml version="1.0" standalone="no"?>
<!DOCTYPE svg PUBLIC "-//W3C//DTD SVG 20010904//EN"
 "http://www.w3.org/TR/2001/REC-SVG-20010904/DTD/svg10.dtd">
<svg version="1.0" xmlns="http://www.w3.org/2000/svg"
 width="1024.000000pt" height="1024.000000pt" viewBox="0 0 1024.000000 768.000000"
 preserveAspectRatio="xMidYMid meet">

<g transform="translate(0.000000,768.000000) scale(0.100000,-0.100000)"
fill="#B3926B" stroke="none">
<path d="M3166 6154 c-3 -9 -6 -29 -6 -45 l0 -29 533 0 c495 0 539 -1 609 -19
193 -50 323 -163 363 -316 17 -68 20 -188 5 -266 -22 -114 -102 -239 -191
-295 -49 -30 -146 -62 -218 -70 -80 -9 -87 -14 -67 -51 46 -90 298 -474 498
-761 26 -37 47 -72 48 -79 0 -10 -37 -20 -173 -48 -22 -4 -37 11 -83 87 -21
35 -122 189 -224 343 -103 154 -217 326 -254 382 -37 57 -75 107 -86 113 -12
6 -158 10 -389 10 l-371 0 2 -522 3 -523 45 0 45 0 5 470 5 470 305 0 305 0
173 -260 c254 -381 383 -588 375 -596 -5 -4 -75 -28 -158 -54 -82 -26 -346
-111 -585 -190 -239 -79 -469 -151 -510 -159 -41 -9 -158 -21 -260 -26 -586
-32 -950 -85 -1361 -200 -330 -93 -494 -156 -675 -260 -171 -98 -287 -196
-299 -250 -8 -37 -6 -44 60 -210 30 -74 59 -167 66 -206 11 -71 11 -72 -15
-107 -22 -28 -27 -44 -24 -78 5 -67 -6 -63 479 -173 l116 -27 -44 -44 c-37
-37 -44 -49 -41 -77 4 -46 51 -69 239 -117 85 -22 223 -62 307 -90 84 -29 185
-58 225 -66 214 -43 553 -47 836 -10 499 65 1192 86 2426 74 1053 -9 1473 -34
1785 -104 228 -52 285 -58 520 -59 209 0 233 2 336 26 138 33 234 73 329 139
97 67 161 135 175 189 6 23 9 45 6 48 -15 15 21 32 68 32 69 0 157 15 263 45
99 29 397 172 430 207 20 22 21 35 25 281 3 142 2 260 -3 262 -4 3 -10 16 -13
29 -3 14 -34 76 -68 138 -94 174 -138 261 -138 278 0 10 30 28 87 50 98 39
133 63 133 90 0 21 -15 25 -130 40 -117 14 -409 85 -627 151 -413 126 -535
162 -773 230 -292 84 -498 138 -675 178 -71 16 -149 34 -173 40 l-43 12 79 89
c148 170 226 333 263 553 35 200 16 385 -58 582 -105 281 -293 486 -578 630
-117 60 -191 85 -330 111 -76 14 -157 17 -505 18 l-415 1 0 -45 0 -45 425 -6
c417 -6 427 -6 523 -32 344 -91 598 -292 739 -582 79 -164 92 -228 92 -445 -1
-171 -3 -191 -27 -273 -58 -189 -187 -379 -328 -483 l-48 -35 -148 21 c-273
39 -436 51 -775 57 l-338 6 -2 521 -3 521 -57 3 -58 3 -2 -543 -3 -542 -140
-18 c-77 -9 -150 -17 -162 -17 -25 -1 -58 44 -278 369 -148 219 -265 403 -265
418 0 5 19 12 43 16 73 12 206 83 262 140 51 53 104 147 131 234 25 78 29 236
10 325 -46 204 -167 333 -371 397 -93 29 -295 39 -816 39 -362 1 -408 -1 -413
-15z m2844 -1925 c509 -29 1070 -151 2045 -446 322 -97 484 -143 509 -144 12
0 16 -3 9 -5 -17 -7 -282 30 -538 76 -237 43 -329 65 -756 183 -741 205 -1347
286 -1926 258 -337 -16 -581 -47 -853 -107 -138 -31 -763 -236 -873 -288 -43
-20 -80 -36 -83 -36 -2 0 -28 -12 -57 -26 -50 -24 -54 -25 -129 -13 -43 7 -78
16 -78 19 0 11 150 68 400 150 129 43 309 105 400 138 234 84 346 115 585 161
481 93 793 112 1345 80z m-5 -139 c271 -25 915 -145 915 -170 0 -21 -31 -19
-197 14 -182 37 -667 118 -807 136 -43 5 -82 12 -87 16 -17 10 2 23 29 19 15
-2 81 -9 147 -15z m-297 -7 c-2 -5 -18 -33 -35 -63 -18 -30 -75 -127 -126
-215 l-93 -160 -70 -6 c-38 -4 -276 -10 -529 -13 -253 -3 -532 -8 -620 -10
-139 -4 -155 -3 -119 8 63 20 100 46 123 86 31 56 28 105 -9 142 -17 17 -30
32 -28 33 36 31 247 97 444 139 106 22 310 50 434 59 94 7 632 7 628 0z m62
-18 c0 -17 30 -35 59 -35 12 0 21 -3 21 -6 0 -7 -119 -236 -164 -314 -25 -45
-26 -45 -98 -56 -40 -6 -75 -9 -76 -8 -7 4 241 434 250 434 4 0 8 -7 8 -15z
m330 -60 c145 -20 334 -51 425 -70 170 -35 321 -67 334 -71 22 -7 -5 -31 -73
-63 -86 -42 -290 -68 -786 -101 -85 -6 -177 -13 -204 -17 l-50 -6 24 39 c12
21 56 101 97 176 65 121 78 137 96 133 12 -2 74 -12 137 -20z m-1910 -89 c-47
-18 -150 -57 -230 -86 -188 -69 -265 -105 -311 -147 -34 -30 -43 -34 -86 -31
l-48 3 103 53 c129 66 159 78 417 168 217 75 305 98 155 40z m2952 -42 c67
-19 185 -55 261 -80 231 -75 570 -151 932 -208 55 -9 183 -30 285 -46 102 -16
231 -35 287 -42 57 -6 101 -13 99 -16 -3 -2 -73 -22 -157 -43 -111 -29 -220
-48 -405 -70 l-253 -31 -103 40 c-183 71 -281 96 -443 113 -221 23 -486 -45
-672 -172 -70 -48 -180 -157 -228 -224 -92 -129 -172 -332 -194 -488 -15 -108
-14 -245 3 -300 8 -26 13 -47 11 -47 -1 0 -33 21 -71 46 -81 54 -350 186 -439
215 -34 11 -84 23 -111 27 -43 7 -393 -6 -603 -22 l-73 -6 18 28 c77 115 207
380 274 557 l45 120 95 11 c155 18 271 36 266 41 -4 5 -237 -12 -313 -23 l-42
-6 10 33 c49 169 57 217 47 314 l-3 30 185 17 c102 9 295 24 430 33 135 8 270
18 300 22 30 3 52 3 49 -1 -13 -14 -379 -49 -689 -67 -228 -12 -328 -26 -200
-28 41 0 248 8 460 19 570 28 890 75 890 131 0 10 -27 47 -60 82 -85 91 -74
95 112 41z m-150 -71 c26 -26 48 -50 48 -54 0 -11 -82 -28 -161 -34 -41 -3
-91 -8 -111 -11 -55 -6 -47 8 22 41 32 15 76 46 97 67 20 21 42 38 47 38 6 0
32 -21 58 -47z m-2800 18 c4 -4 10 -21 14 -38 10 -50 -18 -69 -112 -77 -44 -4
-123 -14 -177 -22 -54 -8 -102 -12 -107 -9 -22 13 5 46 54 63 42 16 206 74
266 95 16 6 50 -1 62 -12z m-820 -181 c363 -74 639 -82 1538 -45 190 7 426 17
525 20 l181 7 2 -71 c4 -105 -36 -257 -129 -496 -41 -106 -225 -482 -252 -517
-15 -19 -153 -31 -562 -48 -316 -13 -738 -36 -1015 -55 -118 -8 -236 -15 -261
-15 -46 0 -47 0 -57 42 -9 36 -9 44 5 52 15 8 15 10 -1 22 -14 10 -22 41 -33
121 -25 181 -6 661 27 697 5 4 75 3 160 -3 84 -7 154 -10 157 -7 3 2 -22 9
-54 16 -32 6 -101 21 -153 34 -95 22 -95 22 -93 51 l2 30 -10 -28 c-10 -26
-14 -28 -48 -23 -164 27 -348 32 -533 15 l-120 -11 -61 28 c-195 87 -444 105
-717 50 -105 -21 -375 -92 -575 -151 -100 -30 -25 5 149 69 303 112 528 163
921 207 55 6 271 15 480 18 209 4 391 8 403 9 13 1 69 -7 124 -18z m-967 -154
c88 -20 219 -82 304 -146 63 -46 191 -172 239 -235 l23 -30 -22 42 c-29 55
-131 167 -203 222 -31 24 -53 47 -50 53 8 13 406 4 523 -12 l93 -13 -6 -36
c-41 -234 -52 -555 -23 -726 8 -49 14 -90 13 -91 0 0 -44 -26 -96 -57 -52 -31
-90 -57 -85 -57 6 0 48 22 95 49 89 51 93 51 103 -5 l6 -31 -62 -7 c-97 -10
-165 -27 -183 -48 -19 -20 -8 -23 28 -9 47 18 715 56 1333 76 105 4 298 13
430 20 510 30 855 39 1006 27 266 -22 455 -82 636 -202 49 -32 89 -57 91 -55
2 2 -2 13 -8 26 -18 33 -25 262 -10 360 59 404 344 725 745 841 115 33 336 33
484 0 97 -22 309 -89 345 -109 11 -6 99 1 240 18 228 28 275 31 403 30 l72 -1
47 -87 c27 -49 79 -139 116 -202 38 -62 72 -126 75 -141 13 -67 -85 -310 -212
-525 l-54 -92 -53 -11 -53 -11 50 5 50 5 -26 -26 c-22 -23 -48 -31 -165 -54
-77 -15 -141 -24 -142 -19 -2 5 -1 20 2 33 5 20 13 25 39 27 l32 1 -30 4 -30
4 0 162 c0 186 -13 249 -76 386 -113 243 -348 426 -637 498 -95 23 -342 24
-435 0 -271 -68 -477 -235 -592 -481 -68 -144 -80 -205 -80 -391 1 -133 4
-174 22 -240 12 -43 20 -81 18 -84 -3 -2 -44 5 -92 17 -97 23 -205 43 -237 44
-12 0 -79 6 -151 14 -340 34 -503 39 -1305 39 -560 0 -876 -4 -1040 -14 -129
-7 -382 -16 -561 -20 l-325 -6 4 167 c7 243 -21 394 -103 560 -119 241 -356
426 -600 469 -145 25 -332 -4 -470 -74 -149 -75 -313 -242 -393 -402 -67 -134
-99 -315 -89 -503 l5 -104 -47 6 c-25 3 -136 10 -246 16 -208 11 -338 25 -367
41 -10 6 -18 21 -18 34 0 22 4 24 45 23 25 0 52 5 60 12 13 10 19 10 35 -5 24
-22 97 -14 132 15 22 18 23 23 29 252 4 206 7 238 26 279 25 56 73 111 130
151 53 36 51 47 -4 20 -21 -11 -117 -45 -213 -77 -193 -63 -252 -91 -248 -115
3 -11 23 -16 88 -21 47 -4 92 -10 102 -14 23 -9 36 -49 43 -135 3 -41 15 -123
27 -182 25 -122 22 -131 -43 -148 -43 -12 -59 -7 -59 17 0 9 -40 117 -90 240
-49 123 -90 235 -90 248 0 60 316 239 585 332 99 35 517 145 523 138 2 -2 -25
-22 -60 -46 -202 -136 -346 -280 -394 -394 -8 -19 -13 -35 -11 -35 2 0 20 24
39 53 63 93 217 237 348 324 106 71 184 108 265 127 39 8 79 18 90 20 40 10
281 -3 350 -18z m-21 -172 c202 -50 400 -223 492 -430 91 -206 85 -449 -16
-643 -100 -192 -236 -301 -440 -352 -71 -18 -104 -21 -220 -17 -186 7 -276 37
-418 140 -116 85 -234 271 -267 423 -25 111 -17 264 19 369 71 208 245 398
441 479 134 56 267 66 409 31z m5441 -94 c336 -107 564 -392 567 -708 2 -113
-15 -189 -62 -287 -94 -197 -288 -355 -505 -411 -98 -26 -362 -27 -453 -1
-202 55 -374 202 -476 405 -51 100 -69 179 -68 292 1 262 143 500 382 640 133
78 230 101 410 96 105 -3 151 -9 205 -26z m-6795 -145 c0 -12 -76 -41 -175
-65 -98 -24 -127 -28 -114 -16 5 5 261 84 277 85 6 1 12 -1 12 -4z m8076 -621
c-4 -12 -164 -94 -182 -94 -4 0 0 8 8 18 19 21 128 238 154 307 l19 50 3 -134
c1 -74 0 -141 -2 -147z m-6167 -371 c-6 -10 -23 -27 -37 -37 -27 -19 -27 -19
-11 0 9 10 19 27 22 37 4 9 13 17 22 17 12 0 13 -4 4 -17z"/>
<path d="M5611 2586 c2 -2 51 -6 109 -9 71 -3 89 -2 55 3 -51 8 -172 13 -164
6z"/>
<path d="M5305 3549 c-131 -11 -536 -67 -544 -75 -9 -9 531 2 551 10 14 7 16
1 15 -41 l-2 -48 45 3 c51 3 138 26 188 49 27 13 32 21 30 41 -7 58 -95 77
-283 61z m218 -55 c9 -3 17 -10 17 -14 0 -10 -161 -49 -173 -43 -11 7 1 55 16
66 13 8 112 2 140 -9z"/>
<path d="M8678 2303 c6 -2 18 -2 25 0 6 3 1 5 -13 5 -14 0 -19 -2 -12 -5z"/>
<path d="M8603 2293 c9 -2 25 -2 35 0 9 3 1 5 -18 5 -19 0 -27 -2 -17 -5z"/>
<path d="M2116 3244 c-240 -54 -432 -224 -512 -454 -143 -409 117 -816 554
-870 221 -28 415 39 559 193 287 307 204 817 -172 1059 -114 73 -292 103 -429
72z m19 -123 c-11 -5 -36 -11 -55 -15 l-35 -6 35 14 c19 8 44 15 55 15 l20 0
-20 -8z m215 0 c0 -4 -11 -6 -25 -3 -14 2 -25 6 -25 8 0 2 11 4 25 4 14 0 25
-4 25 -9z m-185 -77 c4 -36 8 -118 9 -181 l1 -115 -37 -15 -37 -15 -54 59
c-80 85 -177 202 -177 213 0 6 4 10 10 10 5 0 33 14 62 32 41 26 174 75 210
77 3 1 10 -29 13 -65z m143 51 c49 -12 131 -44 149 -59 3 -2 -163 -295 -170
-303 -2 -2 -14 0 -27 5 -25 9 -24 3 -35 225 -8 167 -15 155 83 132z m85 8 c-7
-2 -19 -2 -25 0 -7 3 -2 5 12 5 14 0 19 -2 13 -5z m62 -27 c14 -8 22 -17 16
-20 -5 -4 -13 -1 -16 5 -4 6 -17 14 -29 19 -11 5 -16 9 -10 9 7 1 24 -5 39
-13z m-485 -10 c0 -2 -7 -7 -16 -10 -8 -3 -12 -2 -9 4 6 10 25 14 25 6z m589
-132 c22 -25 49 -61 60 -79 l19 -33 -36 -25 c-20 -14 -77 -51 -127 -81 -88
-55 -90 -56 -108 -37 -19 19 -19 21 59 160 44 78 82 141 86 141 3 0 24 -21 47
-46z m-729 -1 c0 -5 54 -66 120 -138 66 -71 119 -136 120 -143 0 -10 -8 -12
-30 -7 -48 11 -181 64 -243 98 -67 37 -68 46 -17 130 17 27 30 53 30 58 0 11
20 12 20 2z m844 -223 c17 -51 37 -172 30 -179 -2 -2 -66 3 -142 13 -102 12
-140 21 -150 33 -7 10 -8 21 -3 26 12 12 234 155 242 156 4 1 14 -21 23 -49z
m-751 -79 c49 -17 97 -31 107 -31 10 0 21 -4 24 -9 17 -27 -12 -40 -162 -76
-86 -21 -163 -40 -169 -42 -10 -4 -13 17 -13 83 0 49 3 106 6 126 l6 37 57
-28 c31 -16 96 -43 144 -60z m265 29 c-9 -14 -16 -16 -25 -8 -16 13 -10 23 16
25 18 1 19 -1 9 -17z m83 10 c10 -6 19 -16 19 -22 0 -9 -3 -9 -12 0 -7 7 -20
12 -30 12 -10 0 -18 5 -18 10 0 13 16 13 41 0z m-16 -30 c3 -5 1 -10 -4 -10
-6 0 -11 5 -11 10 0 6 2 10 4 10 3 0 8 -4 11 -10z m64 -94 c-9 -8 -10 -7 -5 7
3 10 7 24 7 30 1 7 3 4 6 -7 3 -10 -1 -23 -8 -30z m-199 13 c-7 -11 -14 -18
-17 -15 -8 8 5 36 17 36 7 0 7 -6 0 -21z m183 6 c-3 -9 -8 -14 -10 -11 -3 3
-2 9 2 15 9 16 15 13 8 -4z m-195 -80 c-3 -3 -9 2 -12 12 -6 14 -5 15 5 6 7
-7 10 -15 7 -18z m470 4 c102 -10 122 -15 122 -29 0 -25 -30 -121 -51 -162
l-19 -38 -80 62 c-143 109 -163 129 -155 161 6 24 11 27 34 23 14 -3 81 -10
149 -17z m-528 -15 c0 -17 -120 -146 -182 -196 l-38 -29 -43 68 c-71 109 -71
109 15 127 240 53 248 54 248 30z m160 -14 c0 -27 -19 -35 -38 -17 -12 13 -13
19 -3 31 16 19 41 10 41 -14z m89 11 c16 -10 6 -31 -15 -31 -8 0 -14 2 -14 4
0 2 -3 11 -6 20 -7 18 12 21 35 7z m-161 -71 c7 0 12 -3 12 -7 0 -7 -101 -283
-106 -292 -5 -7 -91 42 -127 72 l-38 32 108 112 c96 99 110 110 124 97 8 -8
21 -14 27 -14z m326 -66 c60 -47 117 -89 125 -94 14 -7 12 -13 -14 -40 -34
-36 -97 -76 -136 -85 -28 -7 -27 -8 -107 181 l-38 91 25 16 c14 8 28 15 31 16
3 0 54 -38 114 -85z m-181 -106 c40 -106 54 -155 47 -162 -14 -14 -180 -14
-201 -1 -15 9 -12 26 33 163 27 83 52 152 56 152 4 0 33 -68 65 -152z"/>
<path d="M7417 3169 c-99 -24 -214 -83 -295 -152 -232 -195 -308 -525 -181
-780 144 -287 395 -434 707 -414 121 8 195 28 295 77 193 97 311 238 352 425
24 108 17 295 -15 384 -67 189 -219 345 -417 429 -126 54 -305 66 -446 31z
m168 -181 c-3 -35 -10 -110 -15 -168 -8 -91 -12 -106 -32 -122 -32 -25 -39
-23 -74 25 -17 23 -68 86 -112 140 -45 53 -82 99 -82 102 0 9 115 57 169 70
31 7 78 14 104 14 l48 1 -6 -62z m253 -35 c6 -3 12 -8 12 -12 0 -7 -122 -216
-142 -245 -13 -18 -15 -18 -47 -1 l-34 17 7 126 c4 70 9 141 12 158 l6 32 86
-35 c48 -19 93 -37 100 -40z m-515 -189 l128 -144 -21 -23 -21 -22 -62 34
c-78 42 -257 159 -257 166 0 20 85 136 99 134 3 0 64 -66 134 -145z m-183 132
c0 -2 -8 -10 -17 -17 -16 -13 -17 -12 -4 4 13 16 21 21 21 13z m806 -20 c24
-17 139 -155 133 -159 -2 -2 -71 -31 -152 -65 l-149 -62 -17 22 c-17 21 -16
24 67 150 47 70 88 128 91 128 4 0 16 -7 27 -14z m-877 -200 c9 -8 84 -49 166
-91 83 -43 153 -80 157 -84 4 -3 5 -16 1 -29 -4 -16 -36 -38 -123 -81 -65 -33
-136 -71 -159 -85 l-41 -26 -11 27 c-39 102 -50 232 -28 333 12 54 15 57 38
36z m511 -36 c0 -5 -5 -10 -11 -10 -5 0 -8 -4 -4 -9 3 -5 1 -12 -4 -15 -13 -9
-22 9 -15 28 7 17 34 22 34 6z m559 -58 c11 -52 15 -174 6 -183 -2 -3 -80 14
-172 37 -166 42 -168 42 -171 71 -3 28 -2 29 130 72 73 24 144 49 158 57 31
16 35 11 49 -54z m-482 52 c-3 -3 -12 -4 -19 -1 -8 3 -5 6 6 6 11 1 17 -2 13
-5z m-6 -35 c-13 -11 -27 -17 -30 -13 -7 7 28 34 43 34 6 -1 0 -10 -13 -21z
m48 -52 c-24 -19 -50 -19 -57 1 -2 7 6 12 22 12 20 0 26 5 26 23 1 22 1 22 16
2 14 -18 13 -22 -7 -38z m-181 -31 c2 -10 -2 -23 -9 -30 -9 -8 -10 -7 -5 8 4
12 0 24 -11 33 -17 13 -17 14 2 11 11 -2 21 -12 23 -22z m-36 -21 c6 -28 -6
-34 -16 -9 -5 14 0 34 8 34 2 0 6 -11 8 -25z m238 -70 c-6 -7 -25 -18 -42 -24
-26 -9 -29 -9 -18 4 6 8 8 20 4 26 -5 9 -1 10 14 7 12 -4 25 -2 28 3 3 5 10 7
15 3 6 -4 6 -11 -1 -19z m-175 5 c-3 -5 -11 -10 -16 -10 -6 0 -7 5 -4 10 3 6
11 10 16 10 6 0 7 -4 4 -10z m-20 -30 c4 -6 10 -8 15 -5 4 3 11 -2 14 -11 5
-12 14 -15 37 -10 27 5 30 4 19 -9 -7 -8 -23 -15 -35 -15 -23 0 -75 35 -75 51
0 12 17 12 25 -1z m428 -31 c89 -22 165 -44 169 -47 20 -19 -165 -252 -199
-252 -7 0 -170 222 -196 266 -7 12 37 70 56 73 4 0 81 -17 170 -40z m-534 12
c10 -7 -14 -39 -100 -135 -126 -141 -115 -138 -178 -52 l-31 45 62 34 c74 41
221 116 228 116 3 1 11 -3 19 -8z m89 -69 l24 -19 -7 -167 c-7 -146 -10 -166
-24 -162 -131 35 -251 89 -251 114 0 5 40 51 89 103 49 52 99 107 112 122 28
32 28 31 57 9z m193 -99 c40 -60 87 -127 105 -149 l34 -42 -38 -15 c-34 -14
-176 -47 -200 -47 -10 0 -25 311 -16 334 3 8 13 17 22 19 10 3 18 5 19 6 2 0
35 -47 74 -106z m440 24 c-10 -9 -11 -8 -5 6 3 10 9 15 12 12 3 -3 0 -11 -7
-18z m-51 -87 c-24 -33 -120 -120 -134 -120 -5 0 4 10 20 22 37 27 114 109
114 120 0 4 5 8 11 8 6 0 1 -13 -11 -30z"/>
</g>
</svg>
